<?xml version="1.0" encoding="UTF-8" standalone="no"?>
<!DOCTYPE svg PUBLIC "-//W3C//DTD SVG 1.1//EN"
 "http://www.w3.org/Graphics/SVG/1.1/DTD/svg11.dtd">
<!-- Generated by graphviz version 15.0.0 (20260523.1842)
 -->
<!-- Title: architecture Pages: 1 -->
<svg width="876pt" height="359pt"
 viewBox="0.00 0.00 876.00 359.00" xmlns="http://www.w3.org/2000/svg" xmlns:xlink="http://www.w3.org/1999/xlink">
<g id="graph0" class="graph" transform="scale(1 1) rotate(0) translate(21.6 337.12)">
<title>architecture</title>
<polygon fill="white" stroke="none" points="-21.6,21.6 -21.6,-337.12 854.36,-337.12 854.36,21.6 -21.6,21.6"/>
<g id="clust1" class="cluster">
<title>cluster_callers</title>
<polygon fill="white" stroke="#999999" stroke-dasharray="5,2" points="8,-33.52 8,-307.52 170.07,-307.52 170.07,-33.52 8,-33.52"/>
<text xml:space="preserve" text-anchor="middle" x="89.04" y="-293.62" font-family="Helvetica,Arial,sans-serif" font-size="11.00" fill="#666666">Callers</text>
</g>
<!-- human -->
<g id="node1" class="node">
<title>human</title>
<path fill="#eaf1fb" stroke="#3f6aa8" d="M139.74,-277.88C139.74,-277.88 38.33,-277.88 38.33,-277.88 32.33,-277.88 26.33,-271.88 26.33,-265.88 26.33,-265.88 26.33,-235.16 26.33,-235.16 26.33,-229.16 32.33,-223.16 38.33,-223.16 38.33,-223.16 139.74,-223.16 139.74,-223.16 145.74,-223.16 151.74,-229.16 151.74,-235.16 151.74,-235.16 151.74,-265.88 151.74,-265.88 151.74,-271.88 145.74,-277.88 139.74,-277.88"/>
<text xml:space="preserve" text-anchor="middle" x="89.04" y="-254.12" font-family="Helvetica,Arial,sans-serif" font-size="12.00">Human operator</text>
<text xml:space="preserve" text-anchor="middle" x="89.04" y="-239.72" font-family="Helvetica,Arial,sans-serif" font-size="12.00">(browser + TOTP)</text>
</g>
<!-- authentik -->
<g id="node4" class="node">
<title>authentik</title>
<path fill="#fdf1cf" stroke="#a97a12" d="M449.6,-106.88C449.6,-106.88 308.62,-106.88 308.62,-106.88 302.62,-106.88 296.62,-100.88 296.62,-94.88 296.62,-94.88 296.62,-64.16 296.62,-64.16 296.62,-58.16 302.62,-52.16 308.62,-52.16 308.62,-52.16 449.6,-52.16 449.6,-52.16 455.6,-52.16 461.6,-58.16 461.6,-64.16 461.6,-64.16 461.6,-94.88 461.6,-94.88 461.6,-100.88 455.6,-106.88 449.6,-106.88"/>
<text xml:space="preserve" text-anchor="middle" x="379.11" y="-83.12" font-family="Helvetica,Arial,sans-serif" font-size="12.00">Authentik</text>
<text xml:space="preserve" text-anchor="middle" x="379.11" y="-68.72" font-family="Helvetica,Arial,sans-serif" font-size="12.00">(OAuth2 / OIDC provider)</text>
</g>
<!-- human&#45;&gt;authentik -->
<g id="edge1" class="edge">
<title>human&#45;&gt;authentik</title>
<path fill="none" stroke="black" d="M146.96,-222.68C183.41,-204.15 231.27,-178.52 271.62,-152.52 283.35,-144.96 285.24,-141.6 296.62,-133.52 305.86,-126.96 315.82,-120.15 325.5,-113.67"/>
<polygon fill="black" stroke="black" points="327.4,-116.6 333.78,-108.15 323.52,-110.78 327.4,-116.6"/>
<text xml:space="preserve" text-anchor="middle" x="229.35" y="-204.02" font-family="Helvetica,Arial,sans-serif" font-size="10.50"> &#160;login &#160;</text>
</g>
<!-- api -->
<g id="node5" class="node">
<title>api</title>
<path fill="#e5f3e8" stroke="#2e7d32" d="M820.76,-192.48C820.76,-192.48 674.46,-192.48 674.46,-192.48 668.46,-192.48 662.46,-186.48 662.46,-180.48 662.46,-180.48 662.46,-112.56 662.46,-112.56 662.46,-106.56 668.46,-100.56 674.46,-100.56 674.46,-100.56 820.76,-100.56 820.76,-100.56 826.76,-100.56 832.76,-106.56 832.76,-112.56 832.76,-112.56 832.76,-180.48 832.76,-180.48 832.76,-186.48 826.76,-192.48 820.76,-192.48"/>
<text xml:space="preserve" text-anchor="start" x="719.12" y="-169.72" font-family="Helvetica,Arial,sans-serif" font-size="12.00">Iverson.Api</text>
<text xml:space="preserve" text-anchor="start" x="680.46" y="-157.72" font-family="Helvetica,Arial,sans-serif" font-size="12.00">(ASP.NET Core JwtBearer)</text>
<text xml:space="preserve" text-anchor="start" x="685.55" y="-135.52" font-family="Helvetica,Arial,sans-serif" font-size="10.00">gRPC: any authenticated caller</text>
<text xml:space="preserve" text-anchor="start" x="691.6" y="-125.52" font-family="Helvetica,Arial,sans-serif" font-size="10.00">/admin/*: &quot;Operator&quot; policy</text>
<text xml:space="preserve" text-anchor="start" x="703.04" y="-115.52" font-family="Helvetica,Arial,sans-serif" font-size="10.00">(groups / scope claim)</text>
</g>
<!-- human&#45;&gt;api -->
<g id="edge6" class="edge">
<title>human&#45;&gt;api</title>
<path fill="none" stroke="#555555" stroke-dasharray="5,2" d="M152.04,-247.94C254.41,-242.61 464.64,-227.19 637.46,-185.52 642.03,-184.42 646.67,-183.19 651.33,-181.88"/>
<polygon fill="#555555" stroke="#555555" points="652.19,-185.27 660.78,-179.08 650.2,-178.56 652.19,-185.27"/>
<text xml:space="preserve" text-anchor="middle" x="379.11" y="-252.71" font-family="Helvetica,Arial,sans-serif" font-size="10.50" fill="#333333">Authorization: Bearer</text>
<text xml:space="preserve" text-anchor="middle" x="379.11" y="-240.11" font-family="Helvetica,Arial,sans-serif" font-size="10.50" fill="#333333">&lt;operator token&gt;</text>
</g>
<!-- enduser -->
<g id="node2" class="node">
<title>enduser</title>
<path fill="#eaf1fb" stroke="#3f6aa8" d="M150.07,-186.88C150.07,-186.88 28,-186.88 28,-186.88 22,-186.88 16,-180.88 16,-174.88 16,-174.88 16,-144.16 16,-144.16 16,-138.16 22,-132.16 28,-132.16 28,-132.16 150.07,-132.16 150.07,-132.16 156.07,-132.16 162.07,-138.16 162.07,-144.16 162.07,-144.16 162.07,-174.88 162.07,-174.88 162.07,-180.88 156.07,-186.88 150.07,-186.88"/>
<text xml:space="preserve" text-anchor="middle" x="89.04" y="-163.12" font-family="Helvetica,Arial,sans-serif" font-size="12.00">End user</text>
<text xml:space="preserve" text-anchor="middle" x="89.04" y="-148.72" font-family="Helvetica,Arial,sans-serif" font-size="12.00">(browser/app + TOTP)</text>
</g>
<!-- enduser&#45;&gt;authentik -->
<g id="edge2" class="edge">
<title>enduser&#45;&gt;authentik</title>
<path fill="none" stroke="black" d="M162.36,-139.44C199.61,-129.09 245.44,-116.36 285.28,-105.3"/>
<polygon fill="black" stroke="black" points="286.18,-108.68 294.88,-102.63 284.31,-101.94 286.18,-108.68"/>
<text xml:space="preserve" text-anchor="middle" x="229.35" y="-134.51" font-family="Helvetica,Arial,sans-serif" font-size="10.50"> &#160;login &#160;</text>
</g>
<!-- enduser&#45;&gt;api -->
<g id="edge7" class="edge">
<title>enduser&#45;&gt;api</title>
<path fill="none" stroke="#555555" stroke-dasharray="5,2" d="M162.25,-160.71C267.03,-162.05 467.27,-163.15 637.46,-155.52 641.82,-155.32 646.28,-155.09 650.78,-154.83"/>
<polygon fill="#555555" stroke="#555555" points="650.76,-158.34 660.52,-154.22 650.32,-151.35 650.76,-158.34"/>
<text xml:space="preserve" text-anchor="middle" x="379.11" y="-190.02" font-family="Helvetica,Arial,sans-serif" font-size="10.50" fill="#333333">x&#45;acting&#45;user&#45;authorization:</text>
<text xml:space="preserve" text-anchor="middle" x="379.11" y="-177.42" font-family="Helvetica,Arial,sans-serif" font-size="10.50" fill="#333333">Bearer &lt;acting&#45;user token&gt;</text>
<text xml:space="preserve" text-anchor="middle" x="379.11" y="-164.82" font-family="Helvetica,Arial,sans-serif" font-size="10.50" fill="#333333">(Part 4)</text>
</g>
<!-- service -->
<g id="node3" class="node">
<title>service</title>
<path fill="#eaf1fb" stroke="#3f6aa8" d="M141.35,-95.88C141.35,-95.88 36.73,-95.88 36.73,-95.88 30.73,-95.88 24.73,-89.88 24.73,-83.88 24.73,-83.88 24.73,-53.16 24.73,-53.16 24.73,-47.16 30.73,-41.16 36.73,-41.16 36.73,-41.16 141.35,-41.16 141.35,-41.16 147.35,-41.16 153.35,-47.16 153.35,-53.16 153.35,-53.16 153.35,-83.88 153.35,-83.88 153.35,-89.88 147.35,-95.88 141.35,-95.88"/>
<text xml:space="preserve" text-anchor="middle" x="89.04" y="-72.12" font-family="Helvetica,Arial,sans-serif" font-size="12.00">Service account</text>
<text xml:space="preserve" text-anchor="middle" x="89.04" y="-57.72" font-family="Helvetica,Arial,sans-serif" font-size="12.00">(client_credentials)</text>
</g>
<!-- service&#45;&gt;authentik -->
<g id="edge3" class="edge">
<title>service&#45;&gt;authentik</title>
<path fill="none" stroke="black" d="M153.61,-70.95C192.17,-72.42 242.05,-74.32 285,-75.96"/>
<polygon fill="black" stroke="black" points="284.7,-79.45 294.83,-76.34 284.97,-72.46 284.7,-79.45"/>
<text xml:space="preserve" text-anchor="middle" x="229.35" y="-78.48" font-family="Helvetica,Arial,sans-serif" font-size="10.50"> &#160;client_credentials &#160;</text>
</g>
<!-- service&#45;&gt;api -->
<g id="edge5" class="edge">
<title>service&#45;&gt;api</title>
<path fill="none" stroke="#555555" stroke-dasharray="5,2" d="M153.71,-45.28C194.05,-31.81 247.67,-16.2 296.62,-9.32 369.23,0.88 389.63,4.7 461.6,-9.32 535.33,-23.68 611.64,-61.86 666.72,-94.31"/>
<polygon fill="#555555" stroke="#555555" points="664.73,-97.2 675.11,-99.32 668.31,-91.19 664.73,-97.2"/>
<text xml:space="preserve" text-anchor="middle" x="379.11" y="-25.07" font-family="Helvetica,Arial,sans-serif" font-size="10.50" fill="#333333">Authorization: Bearer</text>
<text xml:space="preserve" text-anchor="middle" x="379.11" y="-12.47" font-family="Helvetica,Arial,sans-serif" font-size="10.50" fill="#333333">&lt;service token&gt;</text>
</g>
<!-- authentik&#45;&gt;api -->
<g id="edge4" class="edge">
<title>authentik&#45;&gt;api</title>
<path fill="none" stroke="#a97a12" stroke-dasharray="5,2" d="M461.86,-86.44C512.75,-91.64 579.36,-100.07 637.46,-112.72 641.98,-113.7 646.59,-114.79 651.23,-115.95"/>
<polygon fill="#a97a12" stroke="#a97a12" points="650.05,-119.26 660.61,-118.4 651.82,-112.49 650.05,-119.26"/>
<text xml:space="preserve" text-anchor="middle" x="562.03" y="-141.07" font-family="Helvetica,Arial,sans-serif" font-size="10.50" fill="#7a5a0d">issues JWTs</text>
<text xml:space="preserve" text-anchor="middle" x="562.03" y="-128.47" font-family="Helvetica,Arial,sans-serif" font-size="10.50" fill="#7a5a0d">(signing_key + issuer_mode: global</text>
<text xml:space="preserve" text-anchor="middle" x="562.03" y="-115.87" font-family="Helvetica,Arial,sans-serif" font-size="10.50" fill="#7a5a0d">→ shared iss across every provider)</text>
</g>
</g>
</svg>
